<svg width="216" height="34" viewBox="0 0 216 34" fill="none" xmlns="http://www.w3.org/2000/svg">
<path d="M13.2 33.45C10.56 33.45 8.25 33.015 6.27 32.145C4.29 31.245 2.76 29.88 1.68 28.05C0.6 26.19 0.0600002 23.835 0.0600002 20.985V2.625C0.0600002 2.295 0.165 2.025 0.375 1.815C0.585 1.605 0.855 1.5 1.185 1.5H6.09C6.42 1.5 6.69 1.605 6.9 1.815C7.11 2.025 7.215 2.295 7.215 2.625V20.94C7.215 23.16 7.74 24.81 8.79 25.89C9.84 26.97 11.31 27.51 13.2 27.51C15.06 27.51 16.515 26.97 17.565 25.89C18.615 24.81 19.14 23.16 19.14 20.94V2.625C19.14 2.295 19.245 2.025 19.455 1.815C19.695 1.605 19.965 1.5 20.265 1.5H25.215C25.515 1.5 25.77 1.605 25.98 1.815C26.19 2.025 26.295 2.295 26.295 2.625V20.985C26.295 23.835 25.755 26.19 24.675 28.05C23.595 29.88 22.08 31.245 20.13 32.145C18.18 33.015 15.87 33.45 13.2 33.45ZM32.3588 33C32.0588 33 31.8038 32.895 31.5938 32.685C31.3838 32.475 31.2788 32.205 31.2788 31.875V10.725C31.2788 10.395 31.3838 10.125 31.5938 9.915C31.8038 9.705 32.0588 9.6 32.3588 9.6H36.7688C37.0988 9.6 37.3688 9.705 37.5788 9.915C37.7888 10.125 37.8938 10.395 37.8938 10.725V12.48C38.6738 11.52 39.6788 10.725 40.9088 10.095C42.1388 9.465 43.6388 9.15 45.4088 9.15C47.1788 9.15 48.7238 9.555 50.0438 10.365C51.3938 11.145 52.4438 12.3 53.1938 13.83C53.9738 15.33 54.3638 17.16 54.3638 19.32V31.875C54.3638 32.205 54.2438 32.475 54.0038 32.685C53.7938 32.895 53.5388 33 53.2388 33H48.4688C48.1388 33 47.8688 32.895 47.6588 32.685C47.4488 32.475 47.3438 32.205 47.3438 31.875V19.59C47.3438 18 46.9538 16.77 46.1738 15.9C45.4238 15 44.3138 14.55 42.8438 14.55C41.4338 14.55 40.3088 15 39.4688 15.9C38.6288 16.77 38.2088 18 38.2088 19.59V31.875C38.2088 32.205 38.1038 32.475 37.8938 32.685C37.6838 32.895 37.4288 33 37.1288 33H32.3588ZM59.9803 33C59.6503 33 59.3803 32.895 59.1703 32.685C58.9603 32.475 58.8553 32.205 58.8553 31.875V2.175C58.8553 1.845 58.9603 1.575 59.1703 1.365C59.3803 1.155 59.6503 1.05 59.9803 1.05H64.4803C64.7803 1.05 65.0353 1.155 65.2453 1.365C65.4553 1.575 65.5603 1.845 65.5603 2.175V31.875C65.5603 32.205 65.4553 32.475 65.2453 32.685C65.0353 32.895 64.7803 33 64.4803 33H59.9803ZM81.0579 33.45C78.5679 33.45 76.4829 33.045 74.8029 32.235C73.1229 31.395 71.8329 30.21 70.9329 28.68C70.0629 27.15 69.5829 25.365 69.4929 23.325C69.4629 22.725 69.4479 22.05 69.4479 21.3C69.4479 20.52 69.4629 19.845 69.4929 19.275C69.5829 17.205 70.0929 15.42 71.0229 13.92C71.9529 12.39 73.2579 11.22 74.9379 10.41C76.6179 9.57 78.6579 9.15 81.0579 9.15C83.4279 9.15 85.4529 9.57 87.1329 10.41C88.8129 11.22 90.1179 12.39 91.0479 13.92C91.9779 15.42 92.4879 17.205 92.5779 19.275C92.6379 19.845 92.6679 20.52 92.6679 21.3C92.6679 22.05 92.6379 22.725 92.5779 23.325C92.4879 25.365 91.9929 27.15 91.0929 28.68C90.2229 30.21 88.9479 31.395 87.2679 32.235C85.5879 33.045 83.5179 33.45 81.0579 33.45ZM81.0579 28.5C82.5279 28.5 83.6379 28.05 84.3879 27.15C85.1379 26.22 85.5429 24.87 85.6029 23.1C85.6329 22.65 85.6479 22.05 85.6479 21.3C85.6479 20.55 85.6329 19.95 85.6029 19.5C85.5429 17.76 85.1379 16.425 84.3879 15.495C83.6379 14.565 82.5279 14.1 81.0579 14.1C79.5879 14.1 78.4629 14.565 77.6829 15.495C76.9329 16.425 76.5279 17.76 76.4679 19.5C76.4379 19.95 76.4229 20.55 76.4229 21.3C76.4229 22.05 76.4379 22.65 76.4679 23.1C76.5279 24.87 76.9329 26.22 77.6829 27.15C78.4629 28.05 79.5879 28.5 81.0579 28.5ZM106.869 33.45C104.679 33.45 102.744 33.045 101.064 32.235C99.4143 31.425 98.1093 30.255 97.1493 28.725C96.1893 27.165 95.6643 25.305 95.5743 23.145C95.5443 22.665 95.5293 22.065 95.5293 21.345C95.5293 20.595 95.5443 19.98 95.5743 19.5C95.6643 17.31 96.1743 15.45 97.1043 13.92C98.0643 12.36 99.3843 11.175 101.064 10.365C102.744 9.555 104.679 9.15 106.869 9.15C108.879 9.15 110.589 9.435 111.999 10.005C113.409 10.545 114.564 11.235 115.464 12.075C116.364 12.915 117.024 13.8 117.444 14.73C117.894 15.63 118.134 16.425 118.164 17.115C118.194 17.415 118.089 17.685 117.849 17.925C117.639 18.135 117.384 18.24 117.084 18.24H112.269C111.969 18.24 111.729 18.165 111.549 18.015C111.399 17.835 111.249 17.595 111.099 17.295C110.679 16.245 110.139 15.495 109.479 15.045C108.819 14.595 107.994 14.37 107.004 14.37C105.654 14.37 104.589 14.805 103.809 15.675C103.029 16.545 102.609 17.895 102.549 19.725C102.519 20.895 102.519 21.96 102.549 22.92C102.639 24.78 103.059 26.13 103.809 26.97C104.589 27.81 105.654 28.23 107.004 28.23C108.054 28.23 108.894 28.005 109.524 27.555C110.154 27.105 110.679 26.355 111.099 25.305C111.219 25.005 111.369 24.78 111.549 24.63C111.729 24.45 111.969 24.36 112.269 24.36H117.084C117.384 24.36 117.639 24.48 117.849 24.72C118.089 24.93 118.194 25.185 118.164 25.485C118.134 25.995 117.984 26.595 117.714 27.285C117.474 27.975 117.069 28.68 116.499 29.4C115.959 30.12 115.254 30.795 114.384 31.425C113.514 32.025 112.449 32.52 111.189 32.91C109.959 33.27 108.519 33.45 106.869 33.45ZM122.803 33C122.473 33 122.203 32.895 121.993 32.685C121.783 32.475 121.678 32.205 121.678 31.875V2.175C121.678 1.845 121.783 1.575 121.993 1.365C122.203 1.155 122.473 1.05 122.803 1.05H127.213C127.513 1.05 127.768 1.155 127.978 1.365C128.188 1.575 128.293 1.845 128.293 2.175V17.385L135.223 10.365C135.463 10.155 135.673 9.975 135.853 9.825C136.063 9.675 136.378 9.6 136.798 9.6H141.883C142.183 9.6 142.423 9.705 142.603 9.915C142.783 10.095 142.873 10.32 142.873 10.59C142.873 10.71 142.843 10.845 142.783 10.995C142.723 11.145 142.618 11.265 142.468 11.355L133.783 20.085L143.593 31.29C143.863 31.53 143.998 31.77 143.998 32.01C143.998 32.28 143.893 32.52 143.683 32.73C143.503 32.91 143.278 33 143.008 33H137.788C137.338 33 137.008 32.925 136.798 32.775C136.618 32.625 136.408 32.445 136.168 32.235L128.293 23.415V31.875C128.293 32.205 128.188 32.475 127.978 32.685C127.768 32.895 127.513 33 127.213 33H122.803ZM147.435 33C147.105 33 146.835 32.895 146.625 32.685C146.415 32.475 146.31 32.205 146.31 31.875V2.175C146.31 1.845 146.415 1.575 146.625 1.365C146.835 1.155 147.105 1.05 147.435 1.05H151.935C152.235 1.05 152.49 1.155 152.7 1.365C152.91 1.575 153.015 1.845 153.015 2.175V31.875C153.015 32.205 152.91 32.475 152.7 32.685C152.49 32.895 152.235 33 151.935 33H147.435ZM158.883 33C158.583 33 158.328 32.895 158.118 32.685C157.908 32.475 157.803 32.205 157.803 31.875V10.725C157.803 10.395 157.908 10.125 158.118 9.915C158.328 9.705 158.583 9.6 158.883 9.6H163.383C163.713 9.6 163.983 9.705 164.193 9.915C164.403 10.125 164.508 10.395 164.508 10.725V31.875C164.508 32.205 164.403 32.475 164.193 32.685C163.983 32.895 163.713 33 163.383 33H158.883ZM158.748 6C158.448 6 158.193 5.895 157.983 5.685C157.773 5.475 157.668 5.205 157.668 4.875V1.275C157.668 0.944999 157.773 0.674999 157.983 0.464998C158.193 0.224999 158.448 0.105 158.748 0.105H163.473C163.803 0.105 164.073 0.224999 164.283 0.464998C164.523 0.674999 164.643 0.944999 164.643 1.275V4.875C164.643 5.205 164.523 5.475 164.283 5.685C164.073 5.895 163.803 6 163.473 6H158.748ZM177.531 33C177.081 33 176.736 32.895 176.496 32.685C176.286 32.445 176.106 32.175 175.956 31.875L167.496 10.995C167.436 10.875 167.406 10.74 167.406 10.59C167.406 10.32 167.496 10.095 167.676 9.915C167.886 9.705 168.126 9.6 168.396 9.6H172.761C173.151 9.6 173.436 9.705 173.616 9.915C173.826 10.125 173.961 10.32 174.021 10.5L179.556 25.35L185.091 10.5C185.181 10.32 185.316 10.125 185.496 9.915C185.706 9.705 185.991 9.6 186.351 9.6H190.716C190.986 9.6 191.211 9.705 191.391 9.915C191.601 10.095 191.706 10.32 191.706 10.59C191.706 10.74 191.691 10.875 191.661 10.995L183.156 31.875C183.036 32.175 182.856 32.445 182.616 32.685C182.376 32.895 182.031 33 181.581 33H177.531ZM204.192 33.45C200.742 33.45 197.997 32.49 195.957 30.57C193.947 28.65 192.882 25.86 192.762 22.2C192.762 21.96 192.762 21.645 192.762 21.255C192.762 20.835 192.762 20.505 192.762 20.265C192.882 17.955 193.407 15.975 194.337 14.325C195.267 12.645 196.572 11.37 198.252 10.5C199.932 9.6 201.897 9.15 204.147 9.15C206.667 9.15 208.767 9.675 210.447 10.725C212.157 11.745 213.432 13.155 214.272 14.955C215.142 16.725 215.577 18.765 215.577 21.075V22.11C215.577 22.41 215.457 22.665 215.217 22.875C215.007 23.085 214.752 23.19 214.452 23.19H199.737C199.737 23.22 199.737 23.28 199.737 23.37C199.737 23.43 199.737 23.49 199.737 23.55C199.767 24.51 199.947 25.395 200.277 26.205C200.637 26.985 201.132 27.615 201.762 28.095C202.422 28.575 203.202 28.815 204.102 28.815C204.852 28.815 205.467 28.71 205.947 28.5C206.427 28.29 206.817 28.035 207.117 27.735C207.447 27.435 207.687 27.18 207.837 26.97C208.107 26.67 208.317 26.49 208.467 26.43C208.647 26.34 208.917 26.295 209.277 26.295H213.957C214.257 26.295 214.497 26.385 214.677 26.565C214.887 26.715 214.977 26.94 214.947 27.24C214.917 27.72 214.662 28.32 214.182 29.04C213.732 29.73 213.057 30.42 212.157 31.11C211.257 31.77 210.132 32.325 208.782 32.775C207.462 33.225 205.932 33.45 204.192 33.45ZM199.737 19.095H208.557V19.005C208.557 17.925 208.377 16.995 208.017 16.215C207.687 15.405 207.192 14.775 206.532 14.325C205.872 13.875 205.077 13.65 204.147 13.65C203.217 13.65 202.422 13.875 201.762 14.325C201.102 14.775 200.592 15.405 200.232 16.215C199.902 16.995 199.737 17.925 199.737 19.005V19.095Z" fill="white"/>
</svg>
