<svg width="24" height="16" viewBox="0 0 24 16" fill="none" xmlns="http://www.w3.org/2000/svg">
<path d="M5.75 4.0752H18.25V11.5752H5.75V4.0752ZM20.75 0.325195C22.1172 0.325195 23.25 1.45801 23.25 2.8252V5.9502C22.1953 5.9502 21.375 6.80957 21.375 7.8252C21.375 8.87988 22.1953 9.7002 23.25 9.7002V12.8252C23.25 14.2314 22.1172 15.3252 20.75 15.3252H3.25C1.84375 15.3252 0.75 14.2314 0.75 12.8252V9.7002C1.76562 9.7002 2.625 8.87988 2.625 7.8252C2.625 6.80957 1.76562 5.9502 0.75 5.9502V2.8252C0.75 1.45801 1.84375 0.325195 3.25 0.325195H20.75ZM4.5 11.5752C4.5 12.2783 5.04688 12.8252 5.75 12.8252H18.25C18.9141 12.8252 19.5 12.2783 19.5 11.5752V4.0752C19.5 3.41113 18.9141 2.8252 18.25 2.8252H5.75C5.04688 2.8252 4.5 3.41113 4.5 4.0752V11.5752Z" fill="#E2C55D"/>
</svg>
