<svg width="16" height="18" viewBox="0 0 16 18" fill="none" xmlns="http://www.w3.org/2000/svg">
<path d="M15.8143 10.6161C15.4662 10.0745 15.118 9.55227 14.7699 9.01068C14.6925 8.89463 14.6925 8.81726 14.7699 8.7012C15.118 8.17896 15.4468 7.65671 15.795 7.13446C16.2012 6.5155 15.9884 5.91589 15.2921 5.66444C14.7118 5.45167 14.1316 5.21956 13.5513 5.00679C13.4352 4.96811 13.3772 4.89074 13.3772 4.75534C13.3579 4.11704 13.3192 3.47874 13.2805 2.85978C13.2418 2.18279 12.7196 1.79595 12.0619 1.97003C11.443 2.12477 10.824 2.29885 10.2244 2.47293C10.089 2.51162 10.0116 2.47293 9.9149 2.37622C9.52805 1.87331 9.12186 1.38975 8.73501 0.906192C8.30948 0.364603 7.65183 0.364603 7.20696 0.906192C6.82011 1.38975 6.41392 1.87331 6.04641 2.35688C5.9497 2.49227 5.85299 2.51162 5.69825 2.47293C5.09863 2.29885 4.49902 2.14411 4.07348 2.02805C3.24176 1.83463 2.73886 2.16345 2.70017 2.85978C2.66148 3.49808 2.6228 4.13638 2.60346 4.79402C2.60346 4.92942 2.54543 4.98745 2.42938 5.04548C1.82976 5.27759 1.23014 5.5097 0.630528 5.74181C0.0115701 5.99326 -0.181854 6.59287 0.185651 7.15381C0.533816 7.69539 0.88198 8.21764 1.23014 8.75923C1.30751 8.87528 1.30751 8.95265 1.23014 9.08805C0.862637 9.62964 0.514472 10.1712 0.166307 10.7322C-0.162514 11.2544 0.0502515 11.8734 0.630525 12.1055C1.23014 12.3376 1.8491 12.5697 2.44871 12.8018C2.58411 12.8405 2.62279 12.9179 2.62279 13.0533C2.64214 13.6722 2.71951 14.2718 2.71951 14.8908C2.71951 15.5097 3.2611 16.0707 4.01545 15.8386C4.61507 15.6451 5.21468 15.5097 5.8143 15.3357C5.93035 15.297 6.00772 15.3163 6.08509 15.4324C6.49128 15.9353 6.87813 16.4188 7.28432 16.9217C7.7292 17.4633 8.3675 17.4633 8.79303 16.9217C9.19923 16.4188 9.58607 15.9353 9.99226 15.4324C10.0696 15.3357 10.1277 15.297 10.2631 15.3357C10.882 15.5097 11.501 15.6645 12.1199 15.8386C12.7582 16.0126 13.2998 15.6258 13.3192 14.9682C13.3578 14.3299 13.3965 13.6916 13.4159 13.0339C13.4159 12.8792 13.4932 12.8211 13.6093 12.7825C14.1896 12.5697 14.7892 12.3376 15.3695 12.1055C15.9884 11.796 16.1819 11.177 15.8143 10.6161ZM11.1915 7.44394L7.32302 11.3124C7.2263 11.4091 7.09091 11.4865 6.95551 11.5059C6.91683 11.5059 6.8588 11.5252 6.82011 11.5252C6.64603 11.5252 6.45261 11.4478 6.31721 11.3124L4.73113 9.72635C4.46034 9.45556 4.46034 9.01068 4.73113 8.73988C5.00192 8.46909 5.4468 8.46909 5.71759 8.73988L6.80077 9.82306L10.1664 6.45748C10.4372 6.18668 10.882 6.18668 11.1528 6.45748C11.4623 6.72827 11.4623 7.17315 11.1915 7.44394Z" fill="#E2C55D"/>
</svg>
