<svg width="35" height="38" viewBox="0 0 35 38" fill="none" xmlns="http://www.w3.org/2000/svg">
<path d="M11.7651 31.4532H1.8288C0.820565 31.4532 0 30.6326 0 29.6244V7.38825C0 6.38001 0.820565 5.55945 1.8288 5.55945H11.7651C12.7733 5.55945 13.5939 6.38001 13.5939 7.38825V29.6252C13.5939 30.6334 12.7733 31.4532 11.7651 31.4532ZM1.8288 6.76556C1.48565 6.76556 1.20611 7.0451 1.20611 7.38825V29.6252C1.20611 29.9683 1.48565 30.2478 1.8288 30.2478H11.7651C12.1082 30.2478 12.3878 29.9683 12.3878 29.6252V7.38825C12.3878 7.0451 12.1082 6.76556 11.7651 6.76556H1.8288Z" fill="#E2C55D"/>
<path d="M10.4522 6.76556C10.1192 6.76556 9.84913 6.49544 9.84913 6.1625V3.85079C9.84913 3.81781 9.82008 3.78875 9.7871 3.78875H3.80757C3.77459 3.78875 3.74554 3.81781 3.74554 3.85079V6.16172C3.74554 6.49465 3.47542 6.76477 3.14248 6.76477C2.80955 6.76477 2.53943 6.49465 2.53943 6.16172V3.85079C2.53943 3.15115 3.10872 2.58264 3.80757 2.58264H9.7871C10.4867 2.58264 11.0552 3.15193 11.0552 3.85079V6.16172C11.0552 6.49544 10.7851 6.76556 10.4522 6.76556Z" fill="#E2C55D"/>
<path d="M5.54922 3.78873C5.28381 3.78873 5.04039 3.61206 4.96737 3.34351L4.49466 1.6003C4.38865 1.21004 4.4656 0.818209 4.71138 0.497835C4.95716 0.176677 5.31444 0 5.71883 0H7.87507C8.27946 0 8.63674 0.176677 8.88252 0.497835C9.1283 0.818994 9.20525 1.21082 9.09924 1.6003L8.62653 3.34351C8.53937 3.66467 8.20801 3.85469 7.88685 3.76753C7.56569 3.68037 7.37566 3.349 7.46282 3.02784L7.93553 1.28464C7.9426 1.25951 7.94103 1.25087 7.92454 1.23045C7.90805 1.21004 7.90098 1.20611 7.87507 1.20611H5.71883C5.69213 1.20611 5.68506 1.20925 5.66936 1.23045C5.65287 1.25166 5.65208 1.25872 5.65837 1.28464L6.13108 3.02784C6.21824 3.349 6.02821 3.68037 5.70705 3.76753C5.65444 3.78166 5.60105 3.78873 5.54922 3.78873Z" fill="#E2C55D"/>
<path d="M9.7871 34.4299H3.80757C3.10793 34.4299 2.53943 33.8606 2.53943 33.1618V30.8509C2.53943 30.5179 2.80955 30.2478 3.14248 30.2478C3.47542 30.2478 3.74554 30.5179 3.74554 30.8509V33.1618C3.74554 33.1948 3.77459 33.2238 3.80757 33.2238H9.7871C9.82008 33.2238 9.84913 33.1948 9.84913 33.1618V30.8509C9.84913 30.5179 10.1192 30.2478 10.4522 30.2478C10.7851 30.2478 11.0552 30.5179 11.0552 30.8509V33.1618C11.0552 33.8606 10.4859 34.4299 9.7871 34.4299Z" fill="#E2C55D"/>
<path d="M7.87507 37.0126H5.71883C5.31444 37.0126 4.95716 36.8359 4.71138 36.5147C4.4656 36.1936 4.38865 35.8025 4.49466 35.4123L4.96736 33.6691C5.05453 33.3479 5.38589 33.1579 5.70705 33.245C6.02821 33.3322 6.21824 33.6636 6.13108 33.9847L5.65837 35.7279C5.6513 35.7538 5.65287 35.7609 5.66857 35.7821C5.68506 35.8033 5.69135 35.8065 5.71804 35.8065H7.87428C7.9002 35.8065 7.90805 35.8025 7.92375 35.7821C7.93946 35.7617 7.94103 35.7531 7.93396 35.7279L7.46125 33.9847C7.37409 33.6636 7.56412 33.3322 7.88528 33.245C8.20644 33.1579 8.5378 33.3479 8.62496 33.6691L9.09767 35.4123C9.20368 35.8025 9.12672 36.1936 8.88095 36.5147C8.63674 36.8359 8.27946 37.0126 7.87507 37.0126Z" fill="#E2C55D"/>
<path d="M17.1157 28.2282C15.8593 28.2282 14.4482 28.0178 12.8024 27.4752C12.486 27.3707 12.314 27.03 12.4184 26.7135C12.5229 26.3971 12.8637 26.2259 13.1801 26.3295C17.312 27.6919 19.7462 26.781 22.3233 25.8168C25.2805 24.7104 28.3335 23.5687 33.7932 25.9597V11.517C28.4709 9.03878 25.688 10.0792 22.7458 11.1801C20.087 12.175 17.3371 13.2036 12.8024 11.7086C12.486 11.6041 12.314 11.2633 12.4184 10.9469C12.5229 10.6304 12.8637 10.4585 13.1801 10.5629C17.312 11.9253 19.7462 11.0144 22.3233 10.0502C25.4336 8.88644 28.6491 7.68347 34.6593 10.5927C34.8674 10.6933 34.9993 10.9045 34.9993 11.1353V26.902C34.9993 27.1093 34.8925 27.3024 34.7166 27.4131C34.5407 27.5239 34.32 27.5356 34.1332 27.4453C28.5879 24.7614 25.7501 25.8231 22.745 26.9467C21.052 27.5812 19.3214 28.2282 17.1157 28.2282Z" fill="#E2C55D"/>
<path d="M17.1157 15.9465C15.8593 15.9465 14.4482 15.736 12.8024 15.1934C12.486 15.089 12.314 14.7482 12.4184 14.4317C12.5229 14.1153 12.8637 13.9433 13.1801 14.0478C17.312 15.4101 19.7462 14.4993 22.3233 13.535C25.4336 12.3713 28.6491 11.1683 34.6593 14.0776C34.9592 14.2229 35.0849 14.5833 34.9396 14.8833C34.7943 15.1832 34.4339 15.3088 34.1339 15.1636C28.5887 12.4797 25.7508 13.5413 22.7458 14.665C21.052 15.2994 19.3206 15.9465 17.1157 15.9465Z" fill="#E2C55D"/>
<path d="M17.1157 24.7433C15.8593 24.7433 14.4482 24.5329 12.8024 23.9903C12.486 23.8859 12.314 23.5451 12.4184 23.2286C12.5229 22.9122 12.8637 22.741 13.1801 22.8446C17.312 24.207 19.7462 23.2962 22.3233 22.3319C25.4336 21.1682 28.6491 19.9652 34.6593 22.8745C34.9592 23.0198 35.0849 23.3802 34.9396 23.6801C34.7943 23.9801 34.4339 24.1057 34.1339 23.9605C28.5887 21.2765 25.7508 22.3382 22.7458 23.4618C21.052 24.0955 19.3206 24.7433 17.1157 24.7433Z" fill="#E2C55D"/>
<path d="M30.7401 26.1348C30.4072 26.1348 30.1371 25.8647 30.1371 25.5317V22.0461C30.1371 21.7131 30.4072 21.443 30.7401 21.443C31.0731 21.443 31.3432 21.7131 31.3432 22.0461V25.5317C31.3432 25.8647 31.0739 26.1348 30.7401 26.1348ZM30.7401 13.8522C30.4072 13.8522 30.1371 13.5821 30.1371 13.2492V9.76431C30.1371 9.43137 30.4072 9.16125 30.7401 9.16125C31.0731 9.16125 31.3432 9.43137 31.3432 9.76431V13.2492C31.3432 13.5821 31.0739 13.8522 30.7401 13.8522Z" fill="#E2C55D"/>
<path d="M27.2168 25.7806C26.8839 25.7806 26.6138 25.5105 26.6138 25.1776V21.6912C26.6138 21.3582 26.8839 21.0881 27.2168 21.0881C27.5498 21.0881 27.8199 21.3582 27.8199 21.6912V25.1768C27.8199 25.5105 27.5498 25.7806 27.2168 25.7806ZM27.2168 13.4981C26.8839 13.4981 26.6138 13.228 26.6138 12.895V9.41018C26.6138 9.07725 26.8839 8.80713 27.2168 8.80713C27.5498 8.80713 27.8199 9.07725 27.8199 9.41018V12.895C27.8199 13.228 27.5498 13.4981 27.2168 13.4981Z" fill="#E2C55D"/>
<path d="M23.6935 26.5753C23.3606 26.5753 23.0905 26.3052 23.0905 25.9723V22.4866C23.0905 22.1537 23.3606 21.8836 23.6935 21.8836C24.0264 21.8836 24.2966 22.1537 24.2966 22.4866V25.9723C24.2966 26.3052 24.0264 26.5753 23.6935 26.5753ZM23.6935 14.2928C23.3606 14.2928 23.0905 14.0226 23.0905 13.6897V10.2049C23.0905 9.87193 23.3606 9.60181 23.6935 9.60181C24.0264 9.60181 24.2966 9.87193 24.2966 10.2049V13.6897C24.2966 14.0226 24.0264 14.2928 23.6935 14.2928Z" fill="#E2C55D"/>
<path d="M20.1702 27.7728C19.8373 27.7728 19.5671 27.5027 19.5671 27.1698V23.6841C19.5671 23.3512 19.8373 23.0811 20.1702 23.0811C20.5031 23.0811 20.7733 23.3512 20.7733 23.6841V27.1698C20.7733 27.5027 20.5031 27.7728 20.1702 27.7728ZM20.1702 15.4903C19.8373 15.4903 19.5671 15.2202 19.5671 14.8872V11.4024C19.5671 11.0694 19.8373 10.7993 20.1702 10.7993C20.5031 10.7993 20.7733 11.0694 20.7733 11.4024V14.8872C20.7733 15.2202 20.5031 15.4903 20.1702 15.4903Z" fill="#E2C55D"/>
<path d="M16.6031 27.9735C16.2701 27.9735 16 27.7034 16 27.3705V23.8848C16 23.5519 16.2701 23.2818 16.6031 23.2818C16.936 23.2818 17.2061 23.5519 17.2061 23.8848V27.3705C17.2061 27.7034 16.936 27.9735 16.6031 27.9735ZM16.6031 15.691C16.2701 15.691 16 15.4208 16 15.0879V11.6031C16 11.2701 16.2701 11 16.6031 11C16.936 11 17.2061 11.2701 17.2061 11.6031V15.0879C17.2061 15.4208 16.936 15.691 16.6031 15.691Z" fill="#E2C55D"/>
</svg>
