<svg width="35" height="30" viewBox="0 0 35 30" fill="none" xmlns="http://www.w3.org/2000/svg">
<path d="M17.5 22.8722C14.3947 22.8722 11.8687 20.3461 11.8687 17.2409C11.8687 14.1356 14.3947 11.6095 17.5 11.6095C20.6053 11.6095 23.1314 14.1356 23.1314 17.2409C23.1314 20.3461 20.6053 22.8722 17.5 22.8722ZM17.5 12.75C15.0237 12.75 13.0092 14.7645 13.0092 17.2409C13.0092 19.7172 15.0237 21.7317 17.5 21.7317C19.9764 21.7317 21.9909 19.7172 21.9909 17.2409C21.9909 14.7645 19.9764 12.75 17.5 12.75Z" fill="#E2C55D"/>
<path d="M32.9863 29.4488H2.01375C0.902919 29.4488 0 28.5452 0 27.4351V7.93618C0 6.33529 1.26527 5.03288 2.82088 5.03288H6.71101C8.21612 5.03288 9.51481 4.22872 10.1861 2.88177L10.2106 2.83276C10.2559 2.74143 10.3012 2.6501 10.3457 2.55877C10.9345 1.35958 11.6013 0 13.2371 0H21.7629C23.3987 0 24.0662 1.35883 24.6543 2.55802C24.6989 2.64936 24.7441 2.74069 24.7894 2.83276L24.8139 2.88177C25.4852 4.22872 26.7839 5.03288 28.289 5.03288H32.1791C33.7347 5.03288 35 6.33529 35 7.93618V27.4351C35 28.5459 34.0963 29.4488 32.9863 29.4488ZM2.82088 6.17341C1.8942 6.17341 1.14053 6.96421 1.14053 7.93618V27.4351C1.14053 27.917 1.53259 28.3083 2.01375 28.3083H32.9855C33.4674 28.3083 33.8587 27.9162 33.8587 27.4351V7.93618C33.8587 6.96421 33.1051 6.17341 32.1784 6.17341H28.2882C26.3413 6.17341 24.6602 5.13313 23.7922 3.38966L23.7677 3.34065C23.7209 3.24709 23.6749 3.15353 23.6296 3.06072C23.0452 1.87044 22.6428 1.14053 21.7621 1.14053H13.2371C12.3565 1.14053 11.9533 1.87044 11.3697 3.06072C11.3236 3.15353 11.2783 3.24709 11.2315 3.34065L11.207 3.38966C10.339 5.13238 8.65867 6.17267 6.71175 6.17267H2.82088V6.17341Z" fill="#E2C55D"/>
<path d="M34.4297 8.78487H26.4512C24.5043 8.78487 22.8232 7.74459 21.9552 6.00112L21.1117 4.3074C21.0768 4.23761 21.0345 4.14776 20.9869 4.04752C20.9439 3.95619 20.8956 3.85446 20.8459 3.75199H14.1527C14.1029 3.85446 14.0547 3.95693 14.0116 4.04826C13.9641 4.1485 13.9217 4.23761 13.8876 4.3074L13.0441 6.00186C12.176 7.74459 10.4957 8.78487 8.54877 8.78487H0.570265C0.255431 8.78487 0 8.52944 0 8.21461C0 7.89978 0.255431 7.64434 0.570265 7.64434H8.54877C10.0539 7.64434 11.3526 6.84018 12.0238 5.49323L12.8673 3.79877C12.8993 3.73491 12.9379 3.65323 12.9809 3.56116C13.0738 3.36439 13.1896 3.11935 13.3047 2.90773C13.4049 2.72433 13.5965 2.61072 13.8052 2.61072H21.1956C21.4042 2.61072 21.5965 2.72507 21.696 2.90773C21.8111 3.11861 21.9262 3.36365 22.0191 3.56042C22.0621 3.65249 22.1007 3.73417 22.1327 3.79803L22.9762 5.49174C23.6474 6.8387 24.9461 7.64286 26.4512 7.64286H34.4297C34.7446 7.64286 35 7.89829 35 8.21312C35 8.52796 34.7446 8.78487 34.4297 8.78487Z" fill="#E2C55D"/>
<path d="M17.5 25.5112C12.9401 25.5112 9.22968 21.8015 9.22968 17.2409C9.22968 12.681 12.9394 8.97058 17.5 8.97058C22.0606 8.97058 25.7703 12.6803 25.7703 17.2409C25.7703 21.8008 22.0599 25.5112 17.5 25.5112ZM17.5 10.1111C13.569 10.1111 10.3702 13.3092 10.3702 17.2409C10.3702 21.1719 13.5683 24.3707 17.5 24.3707C21.4317 24.3707 24.6298 21.1726 24.6298 17.2409C24.6298 13.3099 21.431 10.1111 17.5 10.1111Z" fill="#E2C55D"/>
<path d="M34.4297 19.6229H24.9847C24.6699 19.6229 24.4145 19.3674 24.4145 19.0526C24.4145 18.7378 24.6699 18.4823 24.9847 18.4823H33.8595V15.9986H24.9847C24.6699 15.9986 24.4145 15.7431 24.4145 15.4283C24.4145 15.1135 24.6699 14.858 24.9847 14.858H34.4297C34.7446 14.858 35 15.1135 35 15.4283V19.0519C35 19.3674 34.7446 19.6229 34.4297 19.6229ZM10.0153 19.6229H0.570265C0.255431 19.6229 0 19.3674 0 19.0526V15.429C0 15.1142 0.255431 14.8588 0.570265 14.8588H10.0153C10.3301 14.8588 10.5855 15.1142 10.5855 15.429C10.5855 15.7439 10.3301 15.9993 10.0153 15.9993H1.14053V18.4831H10.0153C10.3301 18.4831 10.5855 18.7385 10.5855 19.0533C10.5855 19.3682 10.3301 19.6229 10.0153 19.6229Z" fill="#E2C55D"/>
<path d="M19.3118 29.4488C18.9969 29.4488 18.7415 29.1934 18.7415 28.8785V24.7255C18.7415 24.4107 18.9969 24.1553 19.3118 24.1553C19.6266 24.1553 19.882 24.4107 19.882 24.7255V28.8785C19.882 29.1941 19.6266 29.4488 19.3118 29.4488ZM15.6882 29.4488C15.3734 29.4488 15.118 29.1934 15.118 28.8785V24.7255C15.118 24.4107 15.3734 24.1553 15.6882 24.1553C16.003 24.1553 16.2585 24.4107 16.2585 24.7255V28.8785C16.2585 29.1941 16.003 29.4488 15.6882 29.4488Z" fill="#E2C55D"/>
<path d="M31.262 6.17356C30.9472 6.17356 30.6917 5.91813 30.6917 5.6033V4.15536C30.6917 3.74251 30.3561 3.40689 29.9433 3.40689H29.8438C29.4309 3.40689 29.0953 3.74251 29.0953 4.15536V5.6033C29.0953 5.91813 28.8399 6.17356 28.525 6.17356C28.2102 6.17356 27.9548 5.91813 27.9548 5.6033V4.15536C27.9548 3.11359 28.802 2.26636 29.8438 2.26636H29.9433C30.985 2.26636 31.8323 3.11359 31.8323 4.15536V5.6033C31.8323 5.91813 31.5768 6.17356 31.262 6.17356Z" fill="#E2C55D"/>
<path d="M6.4756 6.17344C6.16077 6.17344 5.90534 5.91801 5.90534 5.60318V4.15524C5.90534 3.74239 5.56971 3.40676 5.15687 3.40676H5.05737C4.64452 3.40676 4.30889 3.74239 4.30889 4.15524V5.60318C4.30889 5.91801 4.05346 6.17344 3.73863 6.17344C3.4238 6.17344 3.16837 5.91801 3.16837 5.60318V4.15524C3.16837 3.11346 4.01559 2.26624 5.05737 2.26624H5.15687C6.19864 2.26624 7.04587 3.11346 7.04587 4.15524V5.60318C7.04587 5.91801 6.79044 6.17344 6.4756 6.17344Z" fill="#E2C55D"/>
</svg>
