<svg width="35" height="36" viewBox="0 0 35 36" fill="none" xmlns="http://www.w3.org/2000/svg">
<path d="M17.5 35.0445C12.8255 35.0445 8.43073 33.2218 5.12539 29.9121C1.82019 26.6026 0 22.2025 0 17.5222C0 12.842 1.82019 8.44189 5.12539 5.13238C8.43073 1.82272 12.8255 0 17.5 0C22.1745 0 26.5693 1.82272 29.8746 5.13238C33.1797 8.44189 35 12.842 35 17.5222C35 22.2025 33.1797 26.6026 29.8746 29.9121C26.5693 33.2218 22.1745 35.0445 17.5 35.0445ZM17.5 1.09514C8.45435 1.09514 1.09514 8.46434 1.09514 17.5222C1.09514 26.5802 8.45435 33.9494 17.5 33.9494C26.5457 33.9494 33.9049 26.5802 33.9049 17.5222C33.9049 8.46434 26.5457 1.09514 17.5 1.09514Z" fill="#E2C55D"/>
<path d="M17.4999 32.2731C13.5647 32.2731 9.86503 30.7387 7.08242 27.9524C4.30001 25.1664 2.7677 21.4622 2.7677 17.5222C2.7677 13.5822 4.30001 9.87807 7.08242 7.09203C9.86503 4.30579 13.5647 2.77136 17.4999 2.77136C21.4352 2.77136 25.1349 4.30579 27.9175 7.09203C30.6998 9.87807 32.2322 13.5822 32.2322 17.5222C32.2322 21.4622 30.6998 25.1664 27.9175 27.9524C25.1349 30.7387 21.4352 32.2731 17.4999 32.2731ZM17.4999 3.8665C9.98043 3.8665 3.86284 9.99244 3.86284 17.5222C3.86284 25.0521 9.98043 31.178 17.4999 31.178C25.0194 31.178 31.137 25.0521 31.137 17.5222C31.137 9.99244 25.0194 3.8665 17.4999 3.8665Z" fill="#E2C55D"/>
<path d="M27.4907 28.1528C27.2967 28.1528 27.1087 28.0494 27.0094 27.867L19.441 13.9735C19.2963 13.708 19.3943 13.3754 19.6598 13.2307C19.9254 13.0859 20.2579 13.184 20.4027 13.4496L27.9711 27.3431C28.1157 27.6087 28.0178 27.9413 27.7522 28.086C27.6689 28.1313 27.5792 28.1528 27.4907 28.1528Z" fill="#E2C55D"/>
<path d="M14.4404 31.9421C14.3519 31.9421 14.2621 31.9206 14.1789 31.8753C13.9133 31.7306 13.8153 31.398 13.96 31.1324L21.5167 17.2603C21.6613 16.9948 21.994 16.8968 22.2595 17.0414C22.5251 17.1861 22.6231 17.5186 22.4784 17.7842L14.9218 31.6564C14.8224 31.8387 14.6344 31.9421 14.4404 31.9421Z" fill="#E2C55D"/>
<path d="M19.9218 21.8805H3.83224C3.52984 21.8805 3.28467 21.6354 3.28467 21.333C3.28467 21.0306 3.52984 20.7854 3.83224 20.7854H19.9218C20.2242 20.7854 20.4693 21.0306 20.4693 21.333C20.4693 21.6354 20.2242 21.8805 19.9218 21.8805Z" fill="#E2C55D"/>
<path d="M15.0787 21.8806C14.8847 21.8806 14.6967 21.7771 14.5973 21.5948L7.02897 7.70117C6.88434 7.43559 6.98229 7.10301 7.24786 6.95832C7.51343 6.81362 7.84594 6.91164 7.99071 7.17721L15.5591 21.0708C15.7037 21.3364 15.6058 21.669 15.3401 21.8137C15.257 21.859 15.1672 21.8806 15.0787 21.8806Z" fill="#E2C55D"/>
<path d="M13.002 18.07C12.9135 18.07 12.8238 18.0485 12.7406 18.0031C12.475 17.8585 12.377 17.5259 12.5217 17.2603L20.0783 3.38817C20.2229 3.1226 20.5556 3.02458 20.8211 3.16921C21.0867 3.31391 21.1847 3.64642 21.04 3.91199L13.4834 17.7842C13.384 17.9665 13.1961 18.07 13.002 18.07Z" fill="#E2C55D"/>
<path d="M31.1678 14.2592H15.0782C14.7758 14.2592 14.5306 14.014 14.5306 13.7116C14.5306 13.4092 14.7758 13.1641 15.0782 13.1641H31.1678C31.4702 13.1641 31.7154 13.4092 31.7154 13.7116C31.7154 14.014 31.4701 14.2592 31.1678 14.2592Z" fill="#E2C55D"/>
</svg>
