<svg width="14" height="12" viewBox="0 0 14 12" fill="none" xmlns="http://www.w3.org/2000/svg">
<path d="M1.42188 0.890625L6.67188 5.26562C6.86328 5.42969 7 5.67578 7 5.92188C7 6.19531 6.86328 6.44141 6.67188 6.60547L1.42188 10.9805C1.14844 11.1992 0.792969 11.2539 0.492188 11.0898C0.191406 10.9531 0 10.6523 0 10.2969V1.54688C0 1.21875 0.191406 0.917969 0.492188 0.753906C0.792969 0.617188 1.17578 0.671875 1.42188 0.890625ZM10.5 1.54688V10.2969C10.5 10.7891 10.0898 11.1719 9.625 11.1719C9.13281 11.1719 8.75 10.7891 8.75 10.2969V1.54688C8.75 1.08203 9.13281 0.671875 9.625 0.671875C10.0898 0.671875 10.5 1.08203 10.5 1.54688ZM14 1.54688V10.2969C14 10.7891 13.5898 11.1719 13.125 11.1719C12.6328 11.1719 12.25 10.7891 12.25 10.2969V1.54688C12.25 1.08203 12.6328 0.671875 13.125 0.671875C13.5898 0.671875 14 1.08203 14 1.54688Z" fill="#0E0E0E"/>
</svg>
